<?xml version="1.0" encoding="UTF-8" standalone="no"?>
<!DOCTYPE svg PUBLIC "-//W3C//DTD SVG 1.1//EN" "http://www.w3.org/Graphics/SVG/1.1/DTD/svg11.dtd">
<svg width="100%" height="100%" viewBox="0 0 32 32" version="1.1" xmlns="http://www.w3.org/2000/svg" xmlns:xlink="http://www.w3.org/1999/xlink" xml:space="preserve" xmlns:serif="http://www.serif.com/" style="fill-rule:evenodd;clip-rule:evenodd;stroke-linejoin:round;stroke-miterlimit:2;">
    <path d="M17.462,23L8,23L8,24C8,25.104 7.104,26 6,26C4.896,26 4,25.104 4,24L4,23L3,23C2.447,23 2,22.553 2,22L2,20C2,17.791 3.791,16 6,16L26,16C28.209,16 30,17.791 30,20L30,20.223C28.727,18.473 26.663,17.333 24.334,17.333C20.927,17.333 18.085,19.773 17.462,23ZM7.009,14C6.451,14 6,13.549 6,12.991L6,8C6,6.896 6.896,6 8,6L24,6C25.104,6 26,6.896 26,8L26,12.991C26,13.549 25.549,14 24.991,14L7.009,14ZM9,10C8.447,10 8,10.447 8,11C8,11.553 8.447,12 9,12L14,12C14.553,12 15,11.553 15,11C15,10.447 14.553,10 14,10L9,10ZM18,10C17.447,10 17,10.447 17,11C17,11.553 17.447,12 18,12L23,12C23.553,12 24,11.553 24,11C24,10.447 23.553,10 23,10L18,10Z"/>
    <path id="M" d="M26.438,19.333L25.867,19.333C24.801,19.44 24.725,20.4 24.154,20.4C23.582,20.4 23.506,19.44 22.44,19.333L21.869,19.333C20.615,19.333 19.584,20.778 19.584,22.533L19.584,27.333L21.869,27.333L21.869,22.533L23.011,22.533L23.011,27.333L25.296,27.333L25.296,22.533L26.438,22.533L26.438,27.333L28.723,27.333L28.723,22.533C28.723,20.778 27.692,19.333 26.438,19.333Z" style="fill-rule:nonzero;"/>
</svg>
